<svg viewBox="0 0 64 64" id="TwoTone" xmlns="http://www.w3.org/2000/svg" fill="#000000"><g id="SVGRepo_bgCarrier" stroke-width="0"></g><g id="SVGRepo_tracerCarrier" stroke-linecap="round" stroke-linejoin="round"></g><g id="SVGRepo_iconCarrier"> <title></title> <desc></desc> <g data-name="Stroke copy 3" id="Stroke_copy_3"> <rect height="8" style="fill:#e9ece4" width="4" x="22" y="43"></rect> <rect height="10" style="fill:#dfe7df" transform="translate(-13.09 16.98) rotate(-20)" width="4" x="39.59" y="40.62"></rect> <rect height="12" style="fill:#ebefed" width="4" x="18" y="39"></rect> <rect height="8" style="fill:#ebefed" width="4" x="34" y="43"></rect> <rect height="8" style="fill:#e9ece4" width="4" x="30" y="43"></rect> <rect height="12" style="fill:#dfe7df" width="4" x="26" y="39"></rect> <rect height="8" style="fill:#ebefed" width="4" x="21" y="23"></rect> <rect height="8" style="fill:#ebefed" width="4" x="42" y="23"></rect> <rect height="10" style="fill:#dfe7df" transform="translate(-7.04 11.32) rotate(-20)" width="4" x="26.59" y="20.62"></rect> <rect height="12" style="fill:#dfe7df" width="4" x="17" y="19"></rect> <rect height="12" style="fill:#dfe7df" width="4" x="38" y="19"></rect> <rect height="8" style="fill:#ebefed" width="4" x="34" y="23"></rect> <path d="M16,7h8a2,2,0,0,1,2,2V9a2,2,0,0,1-2,2H16a0,0,0,0,1,0,0V7A0,0,0,0,1,16,7Z" style="fill:#ebefed"></path> <path d="M19,3h8a2,2,0,0,1,2,2V5a2,2,0,0,1-2,2H19a0,0,0,0,1,0,0V3A0,0,0,0,1,19,3Z" style="fill:#e9ece4"></path> <path d="M34,7h8a2,2,0,0,1,2,2V9a2,2,0,0,1-2,2H34a0,0,0,0,1,0,0V7A0,0,0,0,1,34,7Z" style="fill:#dfe7df"></path> <path d="M41.9,5.5h8a2,2,0,0,1,2,2v0a2,2,0,0,1-2,2h-8a0,0,0,0,1,0,0v-4A0,0,0,0,1,41.9,5.5Z" style="fill:#ebefed" transform="translate(10.03 -22.45) rotate(30)"></path> <circle cx="16" cy="58" r="3" style="fill:#ebefed"></circle> <circle cx="48" cy="58" r="3" style="fill:#ebefed"></circle> <path d="M10,53a2,2,0,0,1-2-2H6a2,2,0,0,0,0,4H58a2,2,0,0,0,2-2Z" style="fill:#e9ece4"></path> <path d="M10,33a2,2,0,0,1-2-2H6a2,2,0,0,0,0,4H58a2,2,0,0,0,2-2Z" style="fill:#e9ece4"></path> <path d="M10,13a2,2,0,0,1-2-2H6a2,2,0,0,0,0,4H58a2,2,0,0,0,2-2Z" style="fill:#e9ece4"></path> <rect height="16" style="fill:#e9ece4" width="4" x="52" y="35"></rect> <path d="M56,11V8a2,2,0,0,1-2-2V3a2,2,0,0,0-2,2v6Z" style="fill:#e9ece4"></path> <rect height="16" style="fill:#e9ece4" width="4" x="52" y="15"></rect> <path d="M12,11V8a2,2,0,0,1-2-2V3A2,2,0,0,0,8,5v6Z" style="fill:#e9ece4"></path> <rect height="16" style="fill:#e9ece4" width="4" x="8" y="15"></rect> <rect height="16" style="fill:#e9ece4" width="4" x="8" y="35"></rect> </g> <g data-name="Stroke Close copy 3" id="Stroke_Close_copy_3"> <path d="M58,36a3,3,0,0,0,0-6H57V16h1a3,3,0,0,0,0-6H57V5a3,3,0,0,0-6,0V6.4l-6.93-4a1,1,0,0,0-1.36.37L40.84,6H34a1,1,0,0,0-1,1v3H26.82a2.87,2.87,0,0,0,0-2H27a3,3,0,0,0,0-6H19a1,1,0,0,0-1,1V6H16a1,1,0,0,0-1,1v3H13V5A3,3,0,0,0,7,5v5H6a3,3,0,0,0,0,6H7V30H6a3,3,0,0,0,0,6H7V50H6a3,3,0,0,0,0,6h6.56A3.91,3.91,0,0,0,12,58a4,4,0,0,0,8,0,3.91,3.91,0,0,0-.56-2H44.56A3.91,3.91,0,0,0,44,58a4,4,0,0,0,8,0,3.91,3.91,0,0,0-.56-2H58a3,3,0,0,0,0-6H57V36Zm-3-6H53V16h2Zm-8,0V23a1,1,0,0,0-1-1H43V19a1,1,0,0,0-1-1H38a1,1,0,0,0-1,1v3H34a1,1,0,0,0-1,1v6l-3.3-9.08a1,1,0,0,0-.52-.56,1,1,0,0,0-.76,0l-3.76,1.36a1,1,0,0,0-.6,1.28l0,.06H22V19a1,1,0,0,0-1-1H17a1,1,0,0,0-1,1V30H13V16H51V30Zm-8,0V28h2v2Zm-4,0V28h2v2ZM18,30V26h2v4Zm2-6H18V20h2Zm2,0h2v6H22Zm5,6H26V27.27Zm-.71-7.8,1.88-.68L30.9,29,29,29.72ZM41,26H39V20h2Zm-4,0H35V24h2Zm6-2h2v6H43ZM53,5a1,1,0,0,1,2,0v5H53Zm-7.77,5h-.41l.06-.2ZM43.94,4.63,50,8.13a1,1,0,0,1-1,1.74l-6.06-3.5ZM35,8h6.77l1.16.67A1,1,0,0,1,43,9a1,1,0,0,1-1,1H35ZM20,4h7a1,1,0,0,1,0,2H20ZM17,8h7a1,1,0,0,1,0,2H17ZM9,5a1,1,0,0,1,2,0v5H9ZM5,13a1,1,0,0,1,1-1H58a1,1,0,0,1,0,2H6A1,1,0,0,1,5,13Zm4,3h2V30H9ZM5,33a1,1,0,0,1,1-1H58a1,1,0,0,1,0,2H6A1,1,0,0,1,5,33ZM46.1,50a1,1,0,0,0,0-.71l-3.42-9.4a1,1,0,0,0-.52-.56,1,1,0,0,0-.76,0l-3.76,1.36a1,1,0,0,0-.6,1.28l0,.06H31V39a1,1,0,0,0-1-1H26a1,1,0,0,0-1,1v3H23V39a1,1,0,0,0-1-1H18a1,1,0,0,0-1,1V50H13V36H51V50ZM31,50V44h2v6Zm-4,0V48h2v2Zm-4,0V44h2v6Zm-4,0V46h2v4Zm2-6H19V40h2Zm8,2H27V40h2Zm6-2h2v2H35Zm0,4h2v2H35Zm4-.73L40,50H39Zm.28-5.07,1.88-.68L43.9,49,42,49.72ZM9,36h2V50H9Zm9,22a2,2,0,1,1-2-2A2,2,0,0,1,18,58Zm32,0a2,2,0,1,1-2-2A2,2,0,0,1,50,58Zm9-5a1,1,0,0,1-1,1H6a1,1,0,0,1,0-2H58A1,1,0,0,1,59,53Zm-4-3H53V36h2Z" style="fill:#0f1010"></path> </g> </g></svg>